<mxfile host="app.diagrams.net" modified="2024-01-18T09:03:55.053Z" agent="Mozilla/5.0 (Windows NT 10.0; Win64; x64) AppleWebKit/537.36 (KHTML, like Gecko) Chrome/120.0.0.0 Safari/537.36" etag="HFrNTcj2W9_fr1pvLsPI" version="22.1.21" type="device">
  <diagram name="페이지-1" id="QbJNVnGY2KZOadW6aVNS">
    <mxGraphModel dx="1434" dy="772" grid="1" gridSize="10" guides="1" tooltips="1" connect="1" arrows="1" fold="1" page="1" pageScale="1" pageWidth="827" pageHeight="1169" math="0" shadow="0">
      <root>
        <mxCell id="0" />
        <mxCell id="1" parent="0" />
        <mxCell id="nNosNvyxO9DMPiLWS7BA-9" style="edgeStyle=orthogonalEdgeStyle;rounded=0;orthogonalLoop=1;jettySize=auto;html=1;exitX=0.5;exitY=1;exitDx=0;exitDy=0;entryX=0.5;entryY=0;entryDx=0;entryDy=0;strokeWidth=2;" edge="1" parent="1" source="nNosNvyxO9DMPiLWS7BA-1" target="nNosNvyxO9DMPiLWS7BA-2">
          <mxGeometry relative="1" as="geometry" />
        </mxCell>
        <mxCell id="nNosNvyxO9DMPiLWS7BA-1" value="퀘스트 실패&lt;br&gt;시작" style="rounded=1;whiteSpace=wrap;html=1;arcSize=50;" vertex="1" parent="1">
          <mxGeometry x="200" y="40" width="160" height="80" as="geometry" />
        </mxCell>
        <mxCell id="nNosNvyxO9DMPiLWS7BA-13" style="edgeStyle=orthogonalEdgeStyle;rounded=0;orthogonalLoop=1;jettySize=auto;html=1;exitX=0.5;exitY=1;exitDx=0;exitDy=0;entryX=0.5;entryY=0;entryDx=0;entryDy=0;strokeWidth=2;" edge="1" parent="1" source="nNosNvyxO9DMPiLWS7BA-2" target="nNosNvyxO9DMPiLWS7BA-7">
          <mxGeometry relative="1" as="geometry" />
        </mxCell>
        <mxCell id="nNosNvyxO9DMPiLWS7BA-16" style="edgeStyle=orthogonalEdgeStyle;rounded=0;orthogonalLoop=1;jettySize=auto;html=1;exitX=1;exitY=0.5;exitDx=0;exitDy=0;entryX=0.5;entryY=0;entryDx=0;entryDy=0;strokeWidth=2;strokeColor=#990000;" edge="1" parent="1" source="nNosNvyxO9DMPiLWS7BA-2" target="nNosNvyxO9DMPiLWS7BA-3">
          <mxGeometry relative="1" as="geometry" />
        </mxCell>
        <mxCell id="nNosNvyxO9DMPiLWS7BA-2" value="실패 조건 1을&lt;br&gt;충족했는가" style="rhombus;whiteSpace=wrap;html=1;" vertex="1" parent="1">
          <mxGeometry x="200" y="160" width="160" height="80" as="geometry" />
        </mxCell>
        <mxCell id="nNosNvyxO9DMPiLWS7BA-14" style="edgeStyle=orthogonalEdgeStyle;rounded=0;orthogonalLoop=1;jettySize=auto;html=1;exitX=0.5;exitY=1;exitDx=0;exitDy=0;entryX=0.5;entryY=0;entryDx=0;entryDy=0;strokeWidth=2;" edge="1" parent="1" source="nNosNvyxO9DMPiLWS7BA-3" target="nNosNvyxO9DMPiLWS7BA-7">
          <mxGeometry relative="1" as="geometry" />
        </mxCell>
        <mxCell id="nNosNvyxO9DMPiLWS7BA-17" style="edgeStyle=orthogonalEdgeStyle;rounded=0;orthogonalLoop=1;jettySize=auto;html=1;exitX=1;exitY=0.5;exitDx=0;exitDy=0;entryX=0.5;entryY=0;entryDx=0;entryDy=0;strokeWidth=2;strokeColor=#990000;" edge="1" parent="1" source="nNosNvyxO9DMPiLWS7BA-3" target="nNosNvyxO9DMPiLWS7BA-4">
          <mxGeometry relative="1" as="geometry" />
        </mxCell>
        <mxCell id="nNosNvyxO9DMPiLWS7BA-3" value="실패 조건 2을&lt;br&gt;충족했는가" style="rhombus;whiteSpace=wrap;html=1;" vertex="1" parent="1">
          <mxGeometry x="320" y="240" width="160" height="80" as="geometry" />
        </mxCell>
        <mxCell id="nNosNvyxO9DMPiLWS7BA-15" style="edgeStyle=orthogonalEdgeStyle;rounded=0;orthogonalLoop=1;jettySize=auto;html=1;exitX=0.5;exitY=1;exitDx=0;exitDy=0;entryX=0.5;entryY=0;entryDx=0;entryDy=0;strokeWidth=2;" edge="1" parent="1" source="nNosNvyxO9DMPiLWS7BA-4" target="nNosNvyxO9DMPiLWS7BA-7">
          <mxGeometry relative="1" as="geometry" />
        </mxCell>
        <mxCell id="nNosNvyxO9DMPiLWS7BA-18" style="edgeStyle=orthogonalEdgeStyle;rounded=0;orthogonalLoop=1;jettySize=auto;html=1;exitX=1;exitY=0.5;exitDx=0;exitDy=0;entryX=0.5;entryY=0;entryDx=0;entryDy=0;strokeWidth=2;strokeColor=#990000;" edge="1" parent="1" source="nNosNvyxO9DMPiLWS7BA-4" target="nNosNvyxO9DMPiLWS7BA-6">
          <mxGeometry relative="1" as="geometry" />
        </mxCell>
        <mxCell id="nNosNvyxO9DMPiLWS7BA-4" value="실패 조건 3을&lt;br&gt;충족했는가" style="rhombus;whiteSpace=wrap;html=1;" vertex="1" parent="1">
          <mxGeometry x="440" y="320" width="160" height="80" as="geometry" />
        </mxCell>
        <mxCell id="nNosNvyxO9DMPiLWS7BA-5" value="퀘스트 실패&lt;br&gt;종료" style="rounded=1;whiteSpace=wrap;html=1;arcSize=50;" vertex="1" parent="1">
          <mxGeometry x="310" y="720" width="160" height="80" as="geometry" />
        </mxCell>
        <mxCell id="nNosNvyxO9DMPiLWS7BA-6" value="종료&lt;br&gt;(퀘스트 성공)" style="ellipse;whiteSpace=wrap;html=1;" vertex="1" parent="1">
          <mxGeometry x="600" y="400" width="80" height="80" as="geometry" />
        </mxCell>
        <mxCell id="nNosNvyxO9DMPiLWS7BA-10" style="edgeStyle=orthogonalEdgeStyle;rounded=0;orthogonalLoop=1;jettySize=auto;html=1;exitX=0.5;exitY=1;exitDx=0;exitDy=0;entryX=0.5;entryY=0;entryDx=0;entryDy=0;strokeWidth=2;" edge="1" parent="1" source="nNosNvyxO9DMPiLWS7BA-7" target="nNosNvyxO9DMPiLWS7BA-8">
          <mxGeometry relative="1" as="geometry" />
        </mxCell>
        <mxCell id="nNosNvyxO9DMPiLWS7BA-11" style="edgeStyle=orthogonalEdgeStyle;rounded=0;orthogonalLoop=1;jettySize=auto;html=1;exitX=1;exitY=0.5;exitDx=0;exitDy=0;strokeWidth=2;strokeColor=#990000;" edge="1" parent="1" source="nNosNvyxO9DMPiLWS7BA-7" target="nNosNvyxO9DMPiLWS7BA-5">
          <mxGeometry relative="1" as="geometry" />
        </mxCell>
        <mxCell id="nNosNvyxO9DMPiLWS7BA-7" value="실패 시 &lt;br&gt;퀘스트가 &lt;br&gt;사라지는가" style="rhombus;whiteSpace=wrap;html=1;" vertex="1" parent="1">
          <mxGeometry x="200" y="480" width="160" height="80" as="geometry" />
        </mxCell>
        <mxCell id="nNosNvyxO9DMPiLWS7BA-12" style="edgeStyle=orthogonalEdgeStyle;rounded=0;orthogonalLoop=1;jettySize=auto;html=1;exitX=0.5;exitY=1;exitDx=0;exitDy=0;entryX=0;entryY=0.5;entryDx=0;entryDy=0;strokeWidth=2;" edge="1" parent="1" source="nNosNvyxO9DMPiLWS7BA-8" target="nNosNvyxO9DMPiLWS7BA-5">
          <mxGeometry relative="1" as="geometry" />
        </mxCell>
        <mxCell id="nNosNvyxO9DMPiLWS7BA-8" value="퀘스트 자동 포기&lt;br&gt;및 소멸" style="whiteSpace=wrap;html=1;" vertex="1" parent="1">
          <mxGeometry x="200" y="600" width="160" height="80" as="geometry" />
        </mxCell>
      </root>
    </mxGraphModel>
  </diagram>
</mxfile>
